<?xml version="1.0" encoding="UTF-8"?>
<svg width="186px" height="24px" viewBox="0 0 186 24" version="1.1" xmlns="http://www.w3.org/2000/svg" xmlns:xlink="http://www.w3.org/1999/xlink">
    <title>Group 5@2x</title>
    <defs>
        <filter color-interpolation-filters="auto" id="filter-1">
            <feColorMatrix in="SourceGraphic" type="matrix" values="0 0 0 0 0.270588 0 0 0 0 0.270588 0 0 0 0 0.270588 0 0 0 1.000000 0"></feColorMatrix>
        </filter>
    </defs>
    <g id="Page-1" stroke="none" stroke-width="1" fill="none" fill-rule="evenodd">
        <g id="Desktop-Copy-3" transform="translate(-79.000000, -49.000000)">
            <g id="Group-5" transform="translate(79.000000, 49.000000)">
                <path d="M37.194,20 L37.194,15.464 L39.102,15.464 C42.324,15.464 43.746,13.52 43.746,11.432 C43.746,9.11 42.198,7.364 39.102,7.364 L34.116,7.364 L34.116,20 L37.194,20 Z M38.868,13.016 L37.194,13.016 L37.194,9.848 L38.868,9.848 C40.092,9.848 40.614,10.46 40.614,11.432 C40.614,12.404 40.092,13.016 38.868,13.016 Z M49.812,20.144 C52.314,20.144 54.096,18.632 54.582,16.67 L51.306,16.67 C51.054,17.21 50.568,17.642 49.704,17.642 C48.714,17.642 47.904,17.03 47.796,15.716 L54.762,15.716 C54.798,15.41 54.816,15.104 54.816,14.816 C54.816,11.756 52.746,9.812 49.812,9.812 C46.824,9.812 44.736,11.792 44.736,14.978 C44.736,18.164 46.86,20.144 49.812,20.144 Z M51.666,14.006 L47.814,14.006 C47.994,12.89 48.768,12.278 49.776,12.278 C50.802,12.278 51.666,12.908 51.666,14.006 Z M59.514,20 L59.514,15.338 C59.514,13.61 60.36,13.106 61.818,13.106 L62.664,13.106 L62.664,9.848 C61.314,9.848 60.216,10.568 59.514,11.63 L59.514,9.956 L56.436,9.956 L56.436,20 L59.514,20 Z M68.226,20.144 C70.746,20.144 72.294,18.83 72.294,17.084 C72.24,13.34 66.804,14.474 66.804,12.872 C66.804,12.386 67.2,12.098 67.92,12.098 C68.784,12.098 69.306,12.548 69.396,13.232 L72.24,13.232 C72.042,11.252 70.602,9.812 68.01,9.812 C65.382,9.812 63.924,11.216 63.924,12.926 C63.924,16.616 69.396,15.446 69.396,17.066 C69.396,17.516 68.982,17.876 68.19,17.876 C67.344,17.876 66.714,17.408 66.642,16.706 L63.6,16.706 C63.744,18.65 65.544,20.144 68.226,20.144 Z M78.756,20.144 C81.708,20.144 84.012,18.164 84.012,14.978 C84.012,11.792 81.744,9.812 78.792,9.812 C75.858,9.812 73.572,11.792 73.572,14.978 C73.572,18.164 75.804,20.144 78.756,20.144 Z M78.756,17.48 C77.64,17.48 76.704,16.67 76.704,14.978 C76.704,13.268 77.676,12.476 78.792,12.476 C79.872,12.476 80.88,13.268 80.88,14.978 C80.88,16.67 79.854,17.48 78.756,17.48 Z M88.728,20 L88.728,14.546 C88.728,13.178 89.484,12.422 90.654,12.422 C91.824,12.422 92.58,13.178 92.58,14.546 L92.58,20 L95.64,20 L95.64,14.132 C95.64,11.432 94.092,9.848 91.77,9.848 C90.42,9.848 89.34,10.442 88.728,11.288 L88.728,9.956 L85.65,9.956 L85.65,20 L88.728,20 Z M101.58,20.144 C103.074,20.144 104.136,19.46 104.694,18.578 L104.694,20 L107.772,20 L107.772,9.956 L104.694,9.956 L104.694,11.378 C104.154,10.496 103.092,9.812 101.598,9.812 C99.132,9.812 97.17,11.792 97.17,14.96 C97.17,18.128 99.132,20.144 101.58,20.144 Z M102.498,17.462 C101.346,17.462 100.302,16.562 100.302,14.96 C100.302,13.358 101.346,12.494 102.498,12.494 C103.668,12.494 104.694,13.376 104.694,14.978 C104.694,16.58 103.668,17.462 102.498,17.462 Z M113.082,20 L113.082,6.68 L110.004,6.68 L110.004,20 L113.082,20 Z M124.728,20 L124.728,17.39 L123.63,17.39 C122.946,17.39 122.694,17.138 122.694,16.544 L122.694,12.512 L124.71,12.512 L124.71,9.956 L122.694,9.956 L122.694,7.508 L119.616,7.508 L119.616,9.956 L118.392,9.956 L118.392,12.512 L119.616,12.512 L119.616,16.508 C119.616,19.118 121.074,20 123.162,20 L124.728,20 Z M129.516,20 L129.516,15.338 C129.516,13.61 130.362,13.106 131.82,13.106 L132.666,13.106 L132.666,9.848 C131.316,9.848 130.218,10.568 129.516,11.63 L129.516,9.956 L126.438,9.956 L126.438,20 L129.516,20 Z M137.94,20.144 C139.434,20.144 140.496,19.46 141.054,18.578 L141.054,20 L144.132,20 L144.132,9.956 L141.054,9.956 L141.054,11.378 C140.514,10.496 139.452,9.812 137.958,9.812 C135.492,9.812 133.53,11.792 133.53,14.96 C133.53,18.128 135.492,20.144 137.94,20.144 Z M138.858,17.462 C137.706,17.462 136.662,16.562 136.662,14.96 C136.662,13.358 137.706,12.494 138.858,12.494 C140.028,12.494 141.054,13.376 141.054,14.978 C141.054,16.58 140.028,17.462 138.858,17.462 Z M150.792,20.144 C153.312,20.144 155.094,18.686 155.616,16.364 L152.34,16.364 C152.07,17.102 151.584,17.516 150.738,17.516 C149.64,17.516 148.884,16.652 148.884,14.978 C148.884,13.304 149.64,12.44 150.738,12.44 C151.584,12.44 152.088,12.89 152.34,13.592 L155.616,13.592 C155.094,11.198 153.312,9.812 150.792,9.812 C147.84,9.812 145.752,11.81 145.752,14.978 C145.752,18.164 147.84,20.144 150.792,20.144 Z M160.332,20 L160.332,15.788 L163.392,20 L167.208,20 L162.996,14.996 L167.172,9.956 L163.374,9.956 L160.332,14.042 L160.332,6.68 L157.254,6.68 L157.254,20 L160.332,20 Z M172.842,20.144 C175.344,20.144 177.126,18.632 177.612,16.67 L174.336,16.67 C174.084,17.21 173.598,17.642 172.734,17.642 C171.744,17.642 170.934,17.03 170.826,15.716 L177.792,15.716 C177.828,15.41 177.846,15.104 177.846,14.816 C177.846,11.756 175.776,9.812 172.842,9.812 C169.854,9.812 167.766,11.792 167.766,14.978 C167.766,18.164 169.89,20.144 172.842,20.144 Z M174.696,14.006 L170.844,14.006 C171.024,12.89 171.798,12.278 172.806,12.278 C173.832,12.278 174.696,12.908 174.696,14.006 Z M182.544,20 L182.544,15.338 C182.544,13.61 183.39,13.106 184.848,13.106 L185.694,13.106 L185.694,9.848 C184.344,9.848 183.246,10.568 182.544,11.63 L182.544,9.956 L179.466,9.956 L179.466,20 L182.544,20 Z" id="Personaltracker" fill="#454545" fill-rule="nonzero"></path>
                <g filter="url(#filter-1)" id="diet">
                    <g>
                        <path d="M19.5935805,7.42226223 C18.6146314,6.33119099 17.3334882,5.7544974 15.8888373,5.7544974 C14.9143745,5.7544974 13.980045,6.03131032 13.1869378,6.55507547 C12.9050784,6.7412213 12.596106,6.87528782 12.275235,6.95741654 C12.344627,6.20920083 12.4996984,5.5688233 12.7335734,5.06836176 C12.7347925,5.0658144 12.7360116,5.06326705 12.7372307,5.06071969 C12.7727314,4.98528958 12.8094999,4.91217097 12.8485603,4.84329795 C13.2259007,4.17758835 13.7271031,3.86751825 14.4258996,3.86751825 C14.8298655,3.86751825 15.1573685,3.55070237 15.1573685,3.15991876 C15.1573685,2.76913515 14.8298655,2.45231927 14.4258996,2.45231927 C13.5936344,2.45231927 12.8738203,2.72059382 12.2984957,3.23676407 C11.8904337,2.36037851 11.1857366,1.27638326 10.0343072,0.633269674 C7.90982914,-0.553233153 5.20110259,0.284658991 5.0867984,0.320935258 C4.73252367,0.433349231 4.5223483,0.785545084 4.59885994,1.13849571 C4.62353482,1.25237205 5.22772806,3.94054252 7.35225485,5.12713969 C8.22533603,5.61477009 9.19677538,5.76048841 10.0465471,5.76048841 C10.3858998,5.76048841 10.7057468,5.7371848 10.99219,5.70317285 C10.9030483,6.0963623 10.840971,6.5214409 10.8055679,6.97652172 C10.4558283,6.89694037 10.1185724,6.75669415 9.813111,6.55498112 C9.01995498,6.03121598 8.08567425,5.75440306 7.11121149,5.75440306 C5.66656058,5.75440306 4.3854661,6.33114381 3.40646824,7.42216788 C2.79535042,8.10325598 2.3212611,8.9763394 2,10 L21,10 C20.6787389,8.97643375 20.2046496,8.10330315 19.5935805,7.42226223 Z" id="Path" fill="#000000" fill-rule="nonzero"></path>
                        <path d="M4.88754411,21.8552727 C6.11387133,23.2383182 7.44281107,24 8.62971978,24 C9.43870826,24 10.1719692,23.6471818 10.7502828,22.9797727 C10.936851,22.7644545 11.2101017,22.6409091 11.5,22.6409091 C11.7898983,22.6409091 12.0631011,22.7644545 12.2497172,22.9797727 C12.8280308,23.6472273 13.5612917,24 14.3702802,24 C15.5571889,24 16.8861287,23.2383182 18.1124559,21.8552727 C18.8395935,21.0351818 19.4833496,20.0563182 20,19 L3,19 C3.51665044,20.0563182 4.16040645,21.0351364 4.88754411,21.8552727 L4.88754411,21.8552727 Z" id="Path" fill="#000000" fill-rule="nonzero"></path>
                        <line x1="3" y1="19" x2="20" y2="19" id="Path" fill="#000000" fill-rule="nonzero"></line>
                        <path d="M21.421875,8 L20.7590156,8 C21.009,8.43914286 21.2264063,8.91614286 21.4099687,9.42857143 L21.421875,9.42857143 C22.0680469,9.42857143 22.59375,9.96261905 22.59375,10.6190476 C22.59375,11.2754762 22.0680469,11.8095238 21.421875,11.8095238 L0.703125,11.8095238 C0.3148125,11.8095238 0,12.1293333 0,12.5238095 L0,17.2857143 C0,17.6801905 0.3148125,18 0.703125,18 L2.90625,18 L2.90625,15.8571429 C2.90625,15.4626667 3.2210625,15.1428571 3.609375,15.1428571 C3.9976875,15.1428571 4.3125,15.4626667 4.3125,15.8571429 L4.3125,18 L5.71875,18 L5.71875,15.3809524 C5.71875,14.9864762 6.0335625,14.6666667 6.421875,14.6666667 C6.8101875,14.6666667 7.125,14.9864762 7.125,15.3809524 L7.125,18 L8.53125,18 L8.53125,15.8571429 C8.53125,15.4626667 8.8460625,15.1428571 9.234375,15.1428571 C9.6226875,15.1428571 9.9375,15.4626667 9.9375,15.8571429 L9.9375,18 L11.34375,18 L11.34375,15.3809524 C11.34375,14.9864762 11.6585625,14.6666667 12.046875,14.6666667 C12.4351875,14.6666667 12.75,14.9864762 12.75,15.3809524 L12.75,18 L14.15625,18 L14.15625,15.8571429 C14.15625,15.4626667 14.4710625,15.1428571 14.859375,15.1428571 C15.2476875,15.1428571 15.5625,15.4626667 15.5625,15.8571429 L15.5625,18 L16.96875,18 L16.96875,15.3809524 C16.96875,14.9864762 17.2835625,14.6666667 17.671875,14.6666667 C18.0601875,14.6666667 18.375,14.9864762 18.375,15.3809524 L18.375,18 L19.78125,18 L19.78125,15.8571429 C19.78125,15.4626667 20.0960625,15.1428571 20.484375,15.1428571 C20.8726875,15.1428571 21.1875,15.4626667 21.1875,15.8571429 L21.1875,18 L21.421875,18 C22.8434531,18 24,16.8250952 24,15.3809524 L24,10.6190476 C24,9.17490476 22.8434531,8 21.421875,8 Z" id="Path" fill="#000000" fill-rule="nonzero"></path>
                    </g>
                </g>
            </g>
        </g>
    </g>
</svg>